<?xml version="1.0" standalone="no"?>
<!DOCTYPE svg PUBLIC "-//W3C//DTD SVG 1.1//EN" "http://www.w3.org/Graphics/SVG/1.1/DTD/svg11.dtd" >
<!--
2013-9-30: Created.
-->
<svg>
<metadata>
Created by iconfont
</metadata>
<defs>

<font id="iconfont" horiz-adv-x="1024" >
  <font-face
    font-family="iconfont"
    font-weight="500"
    font-stretch="normal"
    units-per-em="1024"
    ascent="896"
    descent="-128"
  />
    <missing-glyph />
    
    <glyph glyph-name="menu3" unicode="&#58995;" d="M254.80809969 863.94667125a222.80809969 222.80809969 0 0 1 0-445.61619844h222.91475718V641.13857156A222.86142844 222.86142844 0 0 1 254.86142844 863.94667125z m737.21856469-222.80809969a222.80809969 222.80809969 0 0 1-445.72285594 0v-222.80809875h222.91475625a222.80809969 222.80809969 0 0 1 222.80809969 222.80809875zM32 126.83476406a222.80809969 222.80809969 0 0 1 445.66952719 0V349.64286281H254.80809969A222.80809969 222.80809969 0 0 1 32 126.83476406z m737.11190719 222.80809875h-222.91475719v-222.80809875a222.86142844 222.86142844 0 0 1 445.72285688 0 222.70144125 222.70144125 0 0 1-222.80809969 222.80809875z"  horiz-adv-x="1024" />

    
    <glyph glyph-name="menu" unicode="&#58957;" d="M136.61422911 866.63884895h214.50615456a107.25307806 107.25307806 0 0 0 107.25307807-107.25307806v-214.50615456a107.25307806 107.25307806 0 0 0-107.25307807-107.25307807H136.61422911a107.25307806 107.25307806 0 0 0-107.25307806 107.25307807V759.38577089a107.25307806 107.25307806 0 0 0 107.25307806 107.25307806z m0-107.25307806v-214.50615456h214.50615456V759.38577089H136.61422911z m536.26538722 107.25307806h214.50615456a107.25307806 107.25307806 0 0 0 107.25307806-107.25307806v-214.50615456a107.25307806 107.25307806 0 0 0-107.25307806-107.25307807h-214.50615456a107.25307806 107.25307806 0 0 0-107.25307807 107.25307807V759.38577089a107.25307806 107.25307806 0 0 0 107.25307807 107.25307806z m0-107.25307806v-214.50615456h214.50615456V759.38577089h-214.50615456z m0-429.01230915h214.50615456a107.25307806 107.25307806 0 0 0 107.25307806-107.25307807v-214.50615456a107.25307806 107.25307806 0 0 0-107.25307806-107.25307806h-214.50615456a107.25307806 107.25307806 0 0 0-107.25307807 107.25307806v214.50615456a107.25307806 107.25307806 0 0 0 107.25307807 107.25307807z m0-107.25307807v-214.50615456h214.50615456v214.50615456h-214.50615456zM136.61422911 330.37346174000004h214.50615456a107.25307806 107.25307806 0 0 0 107.25307807-107.25307807v-214.50615456a107.25307806 107.25307806 0 0 0-107.25307807-107.25307806H136.61422911a107.25307806 107.25307806 0 0 0-107.25307806 107.25307806v214.50615456a107.25307806 107.25307806 0 0 0 107.25307806 107.25307807z m0-107.25307807v-214.50615456h214.50615456v214.50615456H136.61422911z"  horiz-adv-x="1024" />

    
    <glyph glyph-name="nodata1" unicode="&#59159;" d="M458.24 242.17600000000004l4.096 4.096c1.536 1.536 4.096 1.536 5.632 0l59.904-59.904 1.024-1.024h209.408c7.168 0 13.312 6.144 13.312 13.312V506.368c0 7.168-6.144 13.312-13.312 13.312H208.384c-7.168 0-13.312-6.144-13.312-13.312v-307.712c0-7.168 6.144-13.312 13.312-13.312h287.744l-45.056 44.544c-1.536 1.536-1.536 4.096 0 5.632l2.56 2.56-32.768 32.768c-14.336-12.288-32.256-18.944-51.2-18.944-43.52 0-78.848 35.328-78.848 78.336 0 43.52 35.328 78.336 78.848 78.336s78.848-35.328 78.848-78.336h40.448v-3.584h-40.448c-1.024-19.456-9.216-37.888-23.552-51.712l33.28-32.768z m67.584-62.464l-9.216-9.216c-1.536-1.536-4.096-1.536-5.632 0l-9.216 9.216H208.384c-10.752 0-18.944 8.704-18.944 18.944V407.04H10.24V414.72h178.688V506.368c0 10.752 8.704 18.944 18.944 18.944h21.504v20.992c0 10.752 8.704 18.944 18.944 18.944H778.24c10.752 0 18.944-8.704 18.944-18.944v-307.712c0-10.752-8.704-18.944-18.944-18.944h-21.504v-20.992c0-4.096-1.536-8.192-3.584-11.264h87.552v-7.68h-314.88z m-80.896 150.528c0 40.96-33.792 74.752-75.264 74.752s-75.264-33.28-75.264-74.752S328.704 256 370.176 256c39.936 0 72.704 31.232 74.752 70.656h-15.36c-2.048-30.72-27.648-55.296-59.392-55.296-32.768 0-59.392 26.624-59.392 59.392 0 32.768 26.624 59.392 59.392 59.392 32.768 0 59.392-26.624 59.392-59.392l15.36-0.512z m-18.944 0c0 30.72-25.088 55.296-55.808 55.296s-55.808-24.576-55.808-55.296c0-30.72 25.088-55.296 55.808-55.296 29.696 0 53.76 22.528 55.808 51.712H363.52v3.584h62.464z m330.752-104.96h21.504c7.168 0 13.312 6.144 13.312 13.312V546.304c0 7.168-6.144 13.312-13.312 13.312H248.832c-7.168 0-13.312-6.144-13.312-13.312v-20.992h502.272c10.752 0 18.944-8.704 18.944-18.944V225.27999999999997zM205.824 83.96799999999996H225.28v7.68h-19.456v18.944h-7.68v-18.944h-19.456v-7.68h19.456v-18.944h7.68v18.944zM38.4 274.94399999999996h19.456v7.68H38.4v18.944H30.72v-18.944H11.776v-7.68H30.72v-18.944h7.68v18.944z m147.968 363.008h19.456v7.68h-19.456v18.944h-7.68v-18.944h-19.456v-7.68h19.456v-18.944h7.68v18.944z m807.936-133.12h19.456v7.68h-19.456v18.944h-7.68v-18.944H967.68v-7.68h19.456v-18.944h7.68v18.944z m-57.344-317.44v-7.68h-65.536v7.68H936.96z m-23.552 100.352c-9.728 0-17.408 7.68-17.408 17.408s7.68 17.408 17.408 17.408 17.408-7.68 17.408-17.408-7.68-17.92-17.408-17.408z m0 5.632c6.144 0 11.776 5.12 11.776 11.264 0 6.144-5.12 11.264-11.776 11.264-6.144 0-11.776-5.12-11.776-11.264 0.512-6.144 5.632-11.264 11.776-11.264z m-95.744-216.064c-9.728 0-17.408 7.68-17.408 17.408s7.68 17.408 17.408 17.408 17.408-7.68 17.408-17.408c-0.512-9.728-8.192-17.408-17.408-17.408z m0 5.632c6.144 0 11.776 5.12 11.776 11.264 0 6.144-5.12 11.264-11.776 11.264-6.144 0-11.776-5.12-11.776-11.264 0-6.144 5.12-11.264 11.776-11.264zM681.984 670.72c-9.216 0-16.384 7.168-16.384 16.384 0 9.216 7.168 16.384 16.384 16.384 9.216 0 16.384-7.168 16.384-16.384 0-9.216-7.68-16.384-16.384-16.384z m0 3.584c6.656 0 12.288 5.632 12.288 12.288 0 6.656-5.632 12.288-12.288 12.288-6.656 0-12.288-5.632-12.288-12.288-0.512-6.656 5.12-12.288 12.288-12.288z m-348.16-331.264l-4.096 1.024c3.072 10.752 10.752 19.968 20.992 25.088l2.048-4.096c-9.216-4.096-15.872-12.288-18.944-22.016z m29.696 2.56v3.584h44.544v-3.584H363.52z m0-37.888v3.584h44.544v-3.584H363.52z"  horiz-adv-x="1024" />

    
    <glyph glyph-name="nonet1" unicode="&#58924;" d="M780.98944 762.69056c92.0832 0 167.30624-74.5216 167.30624-165.73952 0-3.85536 3.24096-7.0656 7.13216-7.0656s7.13216 3.21024 7.13216 7.0656c0 98.92864-81.05984 179.2256-180.92032 179.2256-3.8912 0-7.13216-3.21024-7.13216-7.0656 0-3.85536 2.59072-6.42048 6.48192-6.42048z m0-93.79328c40.20736 0 72.6272-32.11776 72.6272-71.94624 0-3.85536 3.24608-7.0656 7.13728-7.0656 3.8912 0 7.13216 3.21024 7.13216 7.0656 0 46.89408-38.912 85.43744-86.2464 85.43744-3.8912 0-7.13216-3.21024-7.13216-7.0656 0-3.85536 2.59072-6.4256 6.48192-6.4256zM183.10656 785.17248h7.7824v-7.71072c0-3.85024 3.24096-7.0656 7.13216-7.0656s7.13728 3.21536 7.13728 7.0656v7.71072h7.7824c3.8912 0 7.13216 3.21024 7.13216 7.0656 0 3.85536-3.24608 7.0656-7.13728 7.0656h-7.7824V807.0144c0 3.85536-3.24096 7.0656-7.13216 7.0656s-7.13216-3.21024-7.13216-7.0656v-7.71072h-7.7824c-3.8912 0-7.13216-3.21024-7.13216-7.0656 0-3.85536 3.24096-7.0656 7.13216-7.0656zM52.76672 478.1056c0-3.85536 3.24096-7.0656 7.13216-7.0656s7.13728 3.21024 7.13728 7.0656v14.77632h14.91456c3.8912 0 7.13216 3.21024 7.13216 7.0656 0 3.85536-3.24608 7.0656-7.13216 7.0656h-14.91456v14.77632c0 3.85536-3.24608 7.0656-7.13728 7.0656-3.8912 0-7.13216-3.21024-7.13216-7.0656v-14.77632H37.85216c-3.8912 0-7.13216-3.21024-7.13216-7.0656 0-3.85536 3.24096-7.0656 7.13216-7.0656h14.91456v-14.77632zM809.216 18.616319999999973a7.2192 7.2192 0 0 1-7.18336 7.13728h-262.39488l-160.56832 99.90656c4.56704 9.728 5.87264 20.7616 3.26144 31.13984l20.8896 20.7616c67.88096-59.68384 154.69568-92.7744 246.07744-92.7744 99.21024 0 193.2032 38.27712 263.04512 108.3392 44.38528 44.11904-56.78592 195.2768-175.58016 316.5952l17.62304 20.11136h2.6112c8.48384 0 16.31744 3.24096 22.84544 9.728 12.40064 12.32896 12.40064 33.08544 0 45.4144-12.40576 12.32384-33.29024 12.32384-45.69088 0-7.18336-7.13728-9.79456-16.22016-9.1392-25.30304l-20.23424-17.5104C582.0672 660.2239999999999 429.9776 760.1305600000001 386.24768 716.66688c-39.81312-39.5776-69.18656-85.63712-87.46496-137.53856-1.3056-3.8912 0.65536-7.7824 3.9168-9.07776 0.65536 0 1.3056-0.65024 2.6112-0.65024 2.6112 0 5.2224 1.9456 6.528 4.54144A339.79904 339.79904 0 0 0 375.808 684.23168c1.95584-66.17088 93.98784-194.62144 201.68704-301.6704 107.6992-107.03872 236.93824-198.51264 303.5136-200.45824-64.6144-54.49728-145.55136-84.33664-231.71072-84.33664-95.9488 0-186.02496 36.97664-253.25568 104.448-89.42592 89.52832-124.672 216.03328-94.64832 338.64704 0.65536 3.8912-1.3056 7.13216-5.2224 8.43264-3.91168 0.65024-7.17824-1.30048-8.48384-5.19168-30.02368-119.36768 0.65536-242.63168 82.24256-334.1056l-20.8896-20.75648c-15.00672 3.8912-31.97952 0-43.7248-11.67872-17.62816-17.51552-17.62816-46.70976 0-64.22528 7.17824-7.13728 16.31232-11.67872 25.45152-12.9792v-74.60352H117.32992a7.2192 7.2192 0 0 1-7.18336-7.13728c0-3.8912 3.26656-7.13728 7.18336-7.13728h685.35808c3.26144 0.65024 6.52288 3.24608 6.52288 7.13728z m-64.62464 555.9808c3.9168 3.8912 8.48896 5.18656 13.056 5.18656 4.56704 0 9.78944-1.9456 13.056-5.18656a18.32448 18.32448 0 0 0 0-25.95328 18.59584 18.59584 0 0 0-26.112 0c-7.8336 7.13728-7.8336 18.816 0 25.95328zM396.04224 706.93888c28.06272 27.89888 154.69056-35.03104 298.2912-173.86496L565.0944 415.65184C431.28832 555.1308799999999 368.62464 679.04512 396.04224 706.93888z m178.8416-301.02016l134.46144 121.96864 20.23424 17.5104c1.3056-1.9456 2.6112-4.53632 4.57216-5.8368 1.95584-1.9456 3.9168-3.24096 5.87264-4.54144l-17.62304-20.11136-122.71104-133.64224-12.40064 12.32896-12.40576 12.32384z m35.2512-35.03104l118.13888 128.45056c139.68384-143.37024 202.99776-268.57984 174.92992-296.47872-28.06784-27.89376-152.73472 35.03616-293.0688 168.02816z m-230.41536-171.26912l13.056-12.97408-16.31744-16.22016c-1.95584 2.59584-3.9168 5.19168-5.87264 7.13728-1.96096 1.9456-4.57216 4.54144-7.18336 5.8368l16.31744 16.22016z m-63.96416-31.79008c6.528 6.48704 14.3616 9.08288 22.84544 9.08288 8.48384 0 16.31744-3.24096 22.84544-9.08288a31.58016 31.58016 0 0 0 0-44.76416c-12.40064-12.32384-32.63488-12.32384-45.04064 0a31.01696 31.01696 0 0 0-0.65024 44.76416z m29.37344-67.47136c9.1392 1.30048 18.2784 5.8368 25.45664 12.9792l1.3056 1.29536 142.28992-88.22784H345.12896V100.35199999999998z m481.70496-74.60352a7.2192 7.2192 0 0 1-7.17824-7.13728c0-3.8912 3.26656-7.13728 7.17824-7.13728h15.6672a7.2192 7.2192 0 0 1 7.17824 7.13728 7.2192 7.2192 0 0 1-7.17824 7.13728h-15.6672z m159.26784 0H879.0528a7.2192 7.2192 0 0 1-7.17824-7.13728c0-3.8912 3.26144-7.13728 7.17824-7.13728h107.04896a7.2192 7.2192 0 0 1 7.17824 7.13728 7.2192 7.2192 0 0 1-7.17824 7.13728z m-270.22848-69.41696h-30.67904a7.2192 7.2192 0 0 1-7.17824-7.13728c0-3.8912 3.26144-7.13216 7.17824-7.13216h30.67904a7.2192 7.2192 0 0 1 7.17824 7.13216 7.2192 7.2192 0 0 1-7.17824 7.13728z m158.61248 0H746.5472a7.2192 7.2192 0 0 1-7.18336-7.13728c0-3.8912 3.26656-7.13216 7.18336-7.13216h127.93344a7.2192 7.2192 0 0 1 7.17824 7.13216c0 3.8912-3.9168 7.13728-7.17824 7.13728z m-471.92064-68.11648h-7.8336a7.2192 7.2192 0 0 1-7.17824-7.13728c0-3.8912 3.26656-7.13728 7.18336-7.13728h7.8336a7.2192 7.2192 0 0 1 7.17824 7.13728 7.2192 7.2192 0 0 1-7.18336 7.13728z m-31.32928-1.30048c3.26656 0 7.18336-3.8912 7.18336-7.7824A7.2192 7.2192 0 0 0 371.23584-128H201.52832a7.2192 7.2192 0 0 0-7.17824 7.13728c0 0.65024 0.65024 1.29536 0.65024 1.9456 0 11.02848-9.13408 19.46112-19.57888 19.46112-11.09504 0-19.584-8.43264-19.584-19.46112v-1.29536a7.2192 7.2192 0 0 0-7.17824-7.13728H48.13824A7.2192 7.2192 0 0 0 40.96-120.21759999999995c0 3.8912 3.26144 7.13216 7.17824 7.13216h94.64832c2.6112 15.56992 16.31744 27.89888 32.63488 27.89888s30.02368-12.32896 32.63488-27.89888h163.17952zM61.44 878.08a17.92 17.92 0 1 0 35.84 0 17.92 17.92 0 0 0-35.84 0z"  horiz-adv-x="1024" />

    
    <glyph glyph-name="nodata2" unicode="&#58922;" d="M288.867107 804.9664760000001a35.981127 35.981127 0 1 0-35.981127 35.981128 35.917556 35.917556 0 0 0 35.981127-35.981128z m707.226223-641.176061a35.981127 35.981127 0 1 0-17.990564 31.149739 35.917556 35.917556 0 0 0 17.990564-31.149739z m0 0M762.152431-31.435807999999952a10.171343 10.171343 0 0 0-10.679911-9.662777H58.61332a9.726347 9.726347 0 1 0 0 19.071269h692.922771a10.234914 10.234914 0 0 0 10.679911-9.726347z m-218.747455-39.986094a8.899926 8.899926 0 0 0-7.755649-9.726347H137.31409a9.980631 9.980631 0 0 0 0 19.452694h398.335237a8.963496 8.963496 0 0 0 7.755649-9.726347z m-81.625031-46.851751a8.899926 8.899926 0 0 0-7.755649-9.726347H55.689059a9.91706 9.91706 0 0 0 0 19.389123h398.335237a8.899926 8.899926 0 0 0 7.755649-9.662776z m243.857959 46.851751a9.726347 9.726347 0 0 0-9.726347-9.726347H590.002444a9.726347 9.726347 0 0 0 0 19.452694h105.909113a9.789918 9.789918 0 0 0 9.726347-9.726347z m273.926993 0a9.662776 9.662776 0 0 0-9.726347-9.726347h-205.906134a9.726347 9.726347 0 0 0 0 19.452694h205.906134a9.726347 9.726347 0 0 0 9.726347-9.726347z m31.785448-46.851751a9.726347 9.726347 0 0 0-9.726347-9.726347H540.353573a9.726347 9.726347 0 0 0 0 19.579836h461.461138a9.726347 9.726347 0 0 0 9.726347-9.662776z m0 0M691.334452 552.717159h-45.516761v-15.066302a14.430593 14.430593 0 1 0-28.797617 0V552.717159H498.714636v-15.066302a14.430593 14.430593 0 0 0-28.861187 0V552.717159h-44.499627a28.797616 28.797616 0 0 1-28.797616-28.861187v-266.997765A28.797616 28.797616 0 0 1 425.290251 228.505587h266.044201a28.861187 28.861187 0 0 1 28.797617 28.861187v266.997765a28.861187 28.861187 0 0 1-28.797617 28.35262z m-45.071765-249.833623H468.963457A14.430593 14.430593 0 0 0 454.532863 317.50484200000005a14.557735 14.557735 0 0 0 14.430594 14.430594h177.29923a14.557735 14.557735 0 0 0 14.430593-14.430594 14.430593 14.430593 0 0 0-14.430593-14.430593z m0 72.661535H468.963457a14.430593 14.430593 0 1 0 0 28.861187h177.29923a14.430593 14.430593 0 1 0 0-28.861187z m0 74.123665H468.963457a14.430593 14.430593 0 1 0 0 28.797616h177.29923a14.430593 14.430593 0 1 0 0-28.797616z m0 0M892.345627 303.074249l47.551031-41.321083a402.213062 402.213062 0 0 1-598.392849 490.068041l58.612367-50.856717a19.452694 19.452694 0 0 0-25.428359-29.306184l-64.588031 56.00596A405.836603 405.836603 0 0 1 244.685334 656.973429l72.089397-62.808045a34.582568 34.582568 0 1 0-45.38962-52.128135l-62.808046 54.670971a398.398808 398.398808 0 0 1-32.61187-97.772039L110.677884 547.631487a52.128135 52.128135 0 0 1-62.299478-83.532157L171.642374 372.366526a402.530916 402.530916 0 0 1 538.064068-328.725106l48.25031-42.783213a52.128135 52.128135 0 0 1 69.165135 77.937919l-19.770549 17.354855a401.958778 401.958778 0 0 1 48.123169 41.257512l-93.703501 81.56146a34.582568 34.582568 0 0 0 45.580332 52.191706L899.910564 190.36304900000005a400.496648 400.496648 0 0 1 26.636205 43.546064l-53.653836 46.78818a14.812019 14.812019 0 1 0 19.452694 22.376956z m-143.415942-45.834617a57.658803 57.658803 0 0 0-57.595233-57.722373H425.290251a57.595232 57.595232 0 0 0-57.595232 57.722373v266.997766a57.595232 57.595232 0 0 0 57.595232 57.658803h44.499627V597.2167870000001a14.430593 14.430593 0 1 0 28.861187 0v-15.511299h118.369009V597.2167870000001a14.430593 14.430593 0 1 0 28.797617 0v-15.511299h45.516761a57.595232 57.595232 0 0 0 57.595233-57.658803v-266.997765z m0 0M34.710663 697.277378a34.264713 34.264713 0 1 1 33.819717-34.264713 34.391855 34.391855 0 0 1-33.819717 34.264713z m0-57.913087a23.521232 23.521232 0 1 0 16.719146 6.929228 23.648373 23.648373 0 0 0-16.719146-6.929228z m995.64738-39.604668a37.633971 37.633971 0 1 1 37.633971-37.633971 37.633971 37.633971 0 0 1-37.633971 37.633971z m0-63.570897a25.873355 25.873355 0 1 0 25.936926 25.873355 25.873355 25.873355 0 0 0-25.936926-25.873355z m-26.890489 227.202384l-39.477527 5.721381-17.672709 35.790414-17.672709-36.044698-39.541098-5.721381 28.606904-27.907623-6.738515-39.350385 35.345418 18.562702 35.345419-18.562702-6.738515 39.350385z m-57.213807-34.836851l-21.741246-11.442762 4.195679 24.156941-17.545568 17.100571 24.220512 3.55997 10.870623 21.995531 10.807053-21.995531 24.284082-3.55997-17.545567-17.100571 4.132108-24.156941z m-473.539607 139.855972l-26.381922 3.814254L434.635173 896l-11.824187-23.902657-26.318351-3.814254 19.071269-18.562702-4.513534-26.25478 23.584803 12.396325 23.584802-12.396325-4.513533 26.25478zM434.635173 845.143283l-14.494165-7.628508 2.79712 16.083437-11.760616 11.442761 16.210578 2.352124 7.247083 14.621306 7.247082-14.684877 16.147007-2.352123-11.697044-11.442762 2.733548-16.083437z m0 0"  horiz-adv-x="1067" />

    
    <glyph glyph-name="noimg1" unicode="&#58962;" d="M263.964444 628.3377780000001l8.248889-26.168889c14.222222 2.844444 28.444444 5.404444 45.511111 7.68v-7.68h28.444445v13.653333l19.342222 3.982222 9.386667 1.706667-1.991111 13.653333h-12.8l-13.937778-1.706666v9.102222H369.777778l7.395555 10.808889-20.48 13.653333-6.542222-8.533333h-4.551111v15.928889h-28.444444v-15.928889h-16.497778l2.56 2.56c6.826667 7.964444 12.515556 13.937778 16.782222 18.488889h52.622222l7.395556 10.808889-22.186667 15.075555-7.395555-9.955555h-18.773334a89.6 89.6 0 0 1 8.533334 13.368889l-30.72 6.826666c-2.56-7.395556-5.404444-13.937778-8.248889-20.195555H270.506667l3.697777-15.928889h17.635556a9.955556 9.955556 0 0 1-1.991111-2.56 28.444444 28.444444 0 0 0-3.697778-5.12 46.364444 46.364444 0 0 0-18.488889-13.368889l17.635556-23.324445 12.231111 7.395556h20.195555v-11.662222c-20.195556-1.706667-38.4-2.56-53.76-2.56zM382.008889 599.04a101.831111 101.831111 0 0 1 28.444444 48.64H426.666667v-41.244444l-9.386667-10.808889h-85.333333v3.982222h-32.711111v-85.333333h31.573333v8.248888h88.177778v-8.248888h31.857777v63.715555l10.24 10.808889-25.315555 13.368889H455.111111v45.511111h21.333333l8.533334 12.515556-26.168889 15.075555-7.395556-9.955555h-39.822222v16.782222l66.844445 3.982222-18.488889 26.168889a270.506667 270.506667 0 0 0-48.355556-13.368889v4.266667h-28.444444v-36.124445a109.795556 109.795556 0 0 0-15.644445-63.146666z m36.977778-58.88h-88.177778v11.662222h88.177778z m0 28.444444h-88.177778v11.093334h88.177778zM488.391111 640l3.697778-21.048889h62.293333A129.137778 129.137778 0 0 0 478.151111 526.222222l12.8-14.222222a144.497778 144.497778 0 0 1 98.702222 105.528889h3.697778v-69.688889c0-18.773333 8.533333-28.444444 28.444445-28.444444h38.968888c15.36 0 25.031111 4.266667 28.444445 14.222222l3.697778 11.093333c-9.955556 0-13.368889 7.395556-10.24 20.764445l-13.937778 3.413333a113.777778 113.777778 0 0 0-5.404445-15.928889c-3.128889-7.68-7.395556-11.377778-13.084444-10.808889h-13.937778c-7.395556 0-10.808889 3.128889-10.24 9.102222V618.9511110000001h54.044445l9.102222 15.36-28.444445 18.204445-8.817777-12.515556h-58.595556A247.182222 247.182222 0 0 1 597.333333 676.977778h66.844445l11.093333 13.368889-30.72 19.342222-9.386667-12.8h-132.835555l3.697778-21.048889h54.613333A248.888889 248.888889 0 0 0 558.08 640zM735.004444 524.231111h133.688889v-8.533333h32.426667V684.657778L910.222222 696.8888890000001l-35.271111 17.635555-8.533333-11.662222h-130.844445v5.12h-33.28v-193.706666h32.711111z m0 158.72h36.124445A183.182222 183.182222 0 0 0 739.555556 629.191111l11.093333-5.973333c7.964444 6.257778 15.644444 12.515556 23.324444 19.342222a76.8 76.8 0 0 1 14.791111-20.195556 151.324444 151.324444 0 0 0-52.906666-21.617777z m50.062223-31.857778h28.444444a53.76 53.76 0 0 0-11.093333-15.928889 73.955556 73.955556 0 0 0-17.351111 15.928889z m-50.062223-52.053333l3.697778-8.533333a227.555556 227.555556 0 0 1 40.675556 8.533333l-3.697778-4.266667h2.844444c16.213333-6.826667 28.444444-12.8 40.106667-18.488889q7.964444-5.12 10.24 1.706667a21.333333 21.333333 0 0 1 0 6.542222 25.031111 25.031111 0 0 1 0 5.973334c0 3.982222 0 6.542222-5.688889 7.68-10.524444 2.275556-22.186667 3.982222-35.271111 5.688889l7.68 3.413333 6.257778 3.413333a155.591111 155.591111 0 0 1 46.648889-19.342222 67.982222 67.982222 0 0 1 4.835555 5.973333 65.991111 65.991111 0 0 0 13.084445 17.635556 184.888889 184.888889 0 0 0-43.804445 8.248889 121.173333 121.173333 0 0 1 22.186667 28.444444l5.688889 5.688889q2.844444 2.56 0 4.266667l-25.6 17.066666-9.955556-10.24h-20.48l2.844445 3.982223a19.626667 19.626667 0 0 0 2.56 4.266666l-18.488889 5.973334h87.324444v-138.524445h-30.72a39.537778 39.537778 0 0 1 2.844445 15.075556c0 3.413333-2.275556 5.973333-6.542222 7.395555a711.111111 711.111111 0 0 1-70.542223 16.497778l-6.542222-11.946667c4.266667-1.706667 5.688889-2.275556 3.697778-1.706666 26.737778-9.955556 46.933333-18.204444 60.586667-24.177778h-85.333334zM920.177778 514.8444440000001a129.137778 129.137778 0 0 1 51.2 73.102223h64.853333v-73.671111h33.564445v71.964444l9.386666 9.386667c3.128889 2.275556 2.844444 3.982222 0 5.688889l-31.857778 18.488888-11.093333-11.662222h-61.155555a106.382222 106.382222 0 0 1 1.706666 28.444445H1109.333333l8.533334 11.946666-30.435556 19.911111-9.102222-11.946666h-19.626667V711.3955559999999H1024v-53.76h-48.355556V707.982222h-32.142222V640a164.124444 164.124444 0 0 0-38.115555-113.777778zM1365.333333 19.057777999999985V753.777778a142.222222 142.222222 0 0 1-142.222222 142.222222H142.222222a142.222222 142.222222 0 0 1-142.222222-142.222222v-768a113.777778 113.777778 0 0 1 113.777778-113.777778h1137.777778a113.777778 113.777778 0 0 1 113.777777 113.777778v33.28zM142.222222 839.111111h1080.888889a85.333333 85.333333 0 0 0 85.333333-85.333333v-677.831111l-184.035555 183.751111a113.777778 113.777778 0 0 1-160.711111 0l-170.666667-170.666667-284.444444 284.444445a113.777778 113.777778 0 0 1-160.995556 0L56.888889 85.90222200000005V753.777778a85.333333 85.333333 0 0 0 85.333333 85.333333z"  horiz-adv-x="1365" />

    
    <glyph glyph-name="score-his" unicode="&#58933;" d="M286.18 686.75h51.917c9.548 0 17.321 7.153 17.321 15.868v132.014c0 8.735-7.772 15.843-17.321 15.843h-51.917c-9.525 0-17.326-7.107-17.326-15.843v-132.014c0-8.711 7.801-15.868 17.326-15.868zM222.244 395.975h435.729v-42.221h-435.729v42.221zM222.244 556.27h435.729v-42.243h-435.729v42.243zM539.132 686.75h51.946c9.502 0 17.296 7.153 17.296 15.868v132.014c0 8.735-7.796 15.843-17.296 15.843h-51.946c-9.525 0-17.322-7.107-17.322-15.843v-132.014c0-8.711 7.797-15.868 17.322-15.868zM373.754 799.097h132.713v-56.332h-132.713v56.332zM769.806 321.56899999999996c-135.163 0-205.876-40.961-205.876-81.466v-217.644c0-40.46 70.717-81.511 205.876-81.511 134.183 0 204.666 40.369 205.762 80.515v218.64c0 40.505-70.717 81.466-205.762 81.466zM921.235 22.461000000000013c0-11.567-51.569-38.557-151.429-38.557-99.861 0-151.374 27.036-151.374 38.557v51.894c34.493-14.743 85.317-24.494 151.374-24.494 66.171 0 116.937 9.751 151.429 24.494v-51.894zM921.235 131.235c0-11.521-51.569-38.463-151.429-38.463-99.861 0-151.374 26.942-151.374 38.463v52.029c34.493-14.878 85.317-24.676 151.374-24.676 66.171 0 116.937 9.797 151.429 24.676v-52.029zM769.806 201.50300000000004c-99.919 0-151.374 26.987-151.374 38.556 0 11.567 51.511 38.603 151.374 38.603 99.86 0 151.429-27.036 151.429-38.603 0-11.569-51.511-38.556-151.429-38.556zM746.96 681.169v-303.203h61.539v303.203c0 104.086-95.918 117.927-175.053 117.927v-56.332c45.059 0 113.514 3.355 113.514-61.596zM508.543-2.852999999999952h-307.943c-34.35 0-67.338 25.341-67.338 61.59v622.432c0 64.95 68.425 61.596 113.507 61.596v56.332c-78.913 0-175.053-14.185-175.053-117.927v-622.432c0-69.341 63.125-117.926 128.882-117.926h307.943v56.336zM222.244 234.538h287.284v-42.25h-287.284v42.25z"  horiz-adv-x="1024" />

    
    <glyph glyph-name="score" unicode="&#58935;" d="M426.56 516.03428531c111.12 0 226.69714312 24.75428531 296.09142844 71.89714313v-85.85142844h64.32V690.03428531C786.97142844 802.97142844 601.34857156 864 426.69714312 864 252.01142844 864 66.28571469 802.97142844 66.28571469 690.03428531v-512.91428531c0-113.00571469 185.62285687-174 360.27428531-174v64.97142844c-183.42857156 0-296.09142844 63.53142844-296.09142844 109.02857156v154.18285688c69.42857156-47.04 184.86857156-71.86285687 296.09142844-71.86285688v65.04c-183.42857156 0-296.09142844 63.53142844-296.09142844 109.02857156v154.28571375c69.42857156-47.00571469 184.97142844-71.76 296.09142844-71.76z m0 283.02857156c183.46285687 0 296.09142844-63.53142844 296.09142844-109.02857156 0-45.49714312-112.62857156-109.02857156-296.09142844-109.02857062-183.42857156 0-296.09142844 63.53142844-296.09142844 109.02857062 0 45.49714312 112.76571469 109.02857156 296.09142844 109.02857157z m288.06857156-318.61714218c-159.56571469 0-242.98285688-62.09142844-242.98285687-123.42857157V27.428571560000023c0-61.33714313 83.52-123.42857156 242.98285687-123.42857156 158.36571469 0 241.68 61.2 242.98285688 122.09142844H957.71428531v330.92571469c-0.10285688 61.33714313-83.52 123.42857156-243.08571375 123.42857156z m0-64.97142938c117.94285687 0 178.76571469-40.97142844 178.76571375-58.45714219s-60.82285687-58.45714313-178.76571375-58.45714312c-117.94285687 0-178.8 40.97142844-178.8 58.45714312s60.82285687 58.45714313 178.8 58.45714219z m0-446.53714219c-117.94285687 0-178.8 41.00571469-178.8 58.49142844v78.68571375c40.73142844-22.42285688 100.59428531-37.37142844 178.8-37.37142844 78.17142844 0 137.93142844 14.94857156 178.76571375 37.37142844V27.428571560000023c0-17.48571469-60.82285687-58.49142844-178.76571375-58.49142844z m0 164.88c-117.94285687 0-178.8 40.97142844-178.8 58.45714219v78.68571469c40.73142844-22.42285688 100.59428531-37.37142844 178.8-37.37142844 78.17142844 0 137.93142844 14.94857156 178.76571375 37.37142844v-78.68571469c0-17.48571469-60.82285687-58.45714313-178.76571375-58.45714219z"  horiz-adv-x="1024" />

    
    <glyph glyph-name="duihuanjilu1" unicode="&#59150;" d="M784.1 686.8l-1 82.4s3.4 63.9-70.6 63.9H144.7s-55.5-3.4-55.5-53.2v-665.8s11.1-61.6 68.1-61.6h64.5s29.5-1.6 29.5-32.7c0-31-27.4-32-27.4-32l-101.2 0.2S27.5 5.4 27 96.5s-1.6 676.1-1.6 676.1S13.7 896 148.1 896 738 895 738 895s106-0.8 107.8-98.6c1.9-97.7 1.6-112 1.6-112s-4.1-31.8-33.1-31.8c-28.7 0.3-30 30-30.2 34.2zM593.9 340.5v-127.1c0-8.1 2.4-16.2 6.8-23.1 3.8-5.8 9-12.9 15.6-19.8 14.7-15.2 130.3-131.7 130.3-131.7s16.4-16.2 35.7 3.1c14.9 14.9 5 33.9-0.1 41.7-1.2 1.9-2.7 3.7-4.2 5.3L670.5 202.5c-1.2 1.2-2.4 2.4-3.8 3.5-2.7 2.2-9.1 9.1-9.1 26.3 0 17.8-0.3 78.2-0.3 100.2 0 8.8-2.7 17.6-8 24.7-4.8 6.2-11.8 11.8-22.1 11.8-23.1 0-33-19.4-33.3-28.5zM658.9 551.9c-187.7 0-339.9-152.4-339.9-340 0-187.7 152.2-339.9 339.9-339.9s339.9 152.2 339.9 339.9c0.1 187.6-152.3 340-339.9 340z m0-614.1c-151.4 0-274 122.6-274 274s122.6 274 274 274 274-122.6 274-274c0-151.2-122.6-274-274-274zM311.4 459h-91.9c-14.8 0-27 11.1-27 26.1v14.5c0 14.8 12.1 26.2 27 26.2h91.9c14.8 0 27-11.3 27-26.2v-14.5c0.1-14.9-12.2-26.1-27-26.1zM653.7 625.7h-434c-14.8 0-27 9.2-27 24.2v14.5c0 14.8 12.1 24.7 27 24.7h434.1c14.8 0 27-9.8 27-24.7v-14.5c-0.1-15-12.3-24.2-27.1-24.2z"  horiz-adv-x="1024" />

    
    <glyph glyph-name="collection-fill" unicode="&#59294;" d="M490.261333 722.56a49.066667 49.066667 0 0 0 64.064-19.178667l1.664-3.093333 87.850667-177.813333 196.352-28.501334a49.066667 49.066667 0 0 0 29.717333-81.066666l-2.538666-2.645334L725.333333 272l33.536-195.349333a49.066667 49.066667 0 0 0-68.010666-53.269334l-3.157334 1.514667L512 117.141333l-175.701333-92.266666a49.066667 49.066667 0 0 0-71.637334 48.426666l0.469334 3.328L298.666667 271.978667 156.629333 410.24a49.066667 49.066667 0 0 0 23.893334 83.114667l3.285333 0.597333 196.352 28.501333 87.850667 177.813334a49.066667 49.066667 0 0 0 22.250666 22.272z"  horiz-adv-x="1024" />

    
    <glyph glyph-name="menu2" unicode="&#58971;" d="M1095.0023525 731.12470594H98.46588219a66.4376475 66.4376475 0 0 0 0 132.87529406h996.53647031a66.4376475 66.4376475 0 0 0 0-132.87529406zM762.81411781 330.40941187H98.4376475a66.4376475 66.4376475 0 0 0 0 132.87529407h664.37647031a66.4376475 66.4376475 0 0 0 0-132.87529406z m199.34117625-400.65882375H98.40941187a66.4376475 66.4376475 0 0 0 1e-8 132.84705938h863.71764656a66.4376475 66.4376475 0 0 0 0-132.875295z"  horiz-adv-x="1204" />

    
    <glyph glyph-name="menu-more" unicode="&#58940;" d="M113.777778 725.333333h796.444444v-113.777777H113.777778V725.333333z m0-568.888889h796.444444v-113.777777H113.777778v113.777777z m0 284.444445h796.444444v-113.777778H113.777778V440.888889z"  horiz-adv-x="1024" />

    
    <glyph glyph-name="menu-more3" unicode="&#59133;" d="M789.333333 320v-85.333333h85.333334v-64h-85.333334v-85.333334h-64v85.333334h-85.333333v64h85.333333v85.333333h64z m-533.333333-158.101333v-64H170.666667v64h85.333333z m341.333333 0v-64H298.666667v64h298.666666zM256 402.837333v-64H170.666667v64h85.333333z m426.666667 0v-64H298.666667v64h384zM256 643.7760000000001v-64H170.666667v64h85.333333z m597.333333 0v-64H298.666667v64h554.666666z"  horiz-adv-x="1024" />

    
    <glyph glyph-name="resonserate" unicode="&#59230;" d="M516.288 725.333333c4.330667 0 8.512-1.621333 11.733333-4.544L868.906667 410.666667c6.549333-5.973333 7.552-15.786667 2.688-22.954667l-1.450667-1.877333c-0.277333-0.298667-114.325333-104.085333-342.165333-311.381334a17.386667 17.386667 0 0 0-24.661334 1.237334 17.642667 17.642667 0 0 0-4.522666 11.797333v179.904c-16.213333-0.426667-32.170667-1.962667-47.744-4.586667l-4.693334-0.810666c-129.066667-23.552-232.810667-98.304-267.306666-223.936l-2.624 5.696C166.186667 66.88 149.333333 114.474667 149.333333 161.962667c0 198.058667 154.922667 359.68 349.482667 368.874666V707.754667c0 9.706667 7.829333 17.578667 17.493333 17.578666z m46.528-122.730666v-132.821334l-60.992-2.88c-140.416-6.613333-255.36-109.44-282.453333-243.946666 56.277333 51.541333 130.261333 86.4 215.978666 102.058666l5.12 0.896a404.309333 404.309333 0 0 0 56.746667 5.44l65.6 1.664v-140.373333l225.28 205.013333-225.28 204.949334z"  horiz-adv-x="1024" />

    
    <glyph glyph-name="collection" unicode="&#59293;" d="M490.261333 722.56a49.066667 49.066667 0 0 0 64.064-19.178667l1.664-3.093333 87.850667-177.813333 196.352-28.501334a49.066667 49.066667 0 0 0 29.717333-81.066666l-2.538666-2.645334L725.333333 272l33.536-195.349333a49.066667 49.066667 0 0 0-68.010666-53.269334l-3.157334 1.514667L512 117.141333l-175.701333-92.266666a49.066667 49.066667 0 0 0-71.637334 48.426666l0.469334 3.328L298.666667 271.978667 156.629333 410.24a49.066667 49.066667 0 0 0 23.893334 83.114667l3.285333 0.597333 196.352 28.501333 87.850667 177.813334a49.066667 49.066667 0 0 0 22.250666 22.272z m-67.626666-258.581333l-199.658667-28.992 144.469333-140.650667-34.133333-198.741333L512 189.44l178.688-93.845333-34.133333 198.741333 144.469333 140.650667-199.658667 28.992L512 644.842667l-89.386667-180.864z"  horiz-adv-x="1024" />

    
    <glyph glyph-name="bar-news" unicode="&#59219;" d="M827.54370333 772.3614811a72.81777778 72.81777778 0 0 0 72.81777777-72.81777777v-631.08740666a72.81777778 72.81777778 0 0 0-72.81777777-72.81777777H196.45629667a72.81777778 72.81777778 0 0 0-72.81777777 72.81777777V699.54370333a72.81777778 72.81777778 0 0 0 72.81777777 72.81777777h631.08740666z m0-72.81777777H196.45629667v-631.08740666h631.08740666V699.54370333z m-48.54518443-436.90666667v-72.81777778H245.0014811v72.81777778h533.9970378zM463.45481443 602.4533333300001a72.81777778 72.81777778 0 0 0 72.81777778-72.81777778v-121.36296334a72.81777778 72.81777778 0 0 0-72.81777778-72.81777778h-145.63555555a72.81777778 72.81777778 0 0 0-72.81777778 72.81777778v121.36296334a72.81777778 72.81777778 0 0 0 72.81777778 72.81777778h145.63555555z m315.54370447-194.18074112v-72.81777778h-194.18074112v72.81777778h194.18074112z m-315.54370447 121.36296334h-145.63555555v-121.36296334h145.63555555v121.36296334z"  horiz-adv-x="1024" />

    
    <glyph glyph-name="phone" unicode="&#59228;" d="M661.333333 128v-64H362.666667v64h298.666666z m149.333334 576a64 64 0 0 0 64-64v-405.333333a64 64 0 0 0-64-64H213.333333a64 64 0 0 0-64 64V640a64 64 0 0 0 64 64h597.333334z m0-64H213.333333v-405.333333h597.333334V640z m-149.333334-170.666667v-64H362.666667v64h298.666666z"  horiz-adv-x="1024" />

    
    <glyph glyph-name="top-scan" unicode="&#59234;" d="M216.17777813 247.46666667v-159.28888854h170.6439104v-68.26666666H216.17777813a68.26666667 68.26666667 0 0 0-68.26666666 68.26666666v159.28888854h68.26666666z m659.9111104 0v-159.28888854a68.26666667 68.26666667 0 0 0-68.26666666-68.26666666h-170.68942187v68.26666666H807.82222187v159.28888854h68.26666666z m-91.02222186 170.66666666v-68.26666666H238.93333333v68.26666666h546.13333334zM807.82222187 748.08888853a68.26666667 68.26666667 0 0 0 68.26666666-68.26666666v-159.28888854h-68.26666666v159.28888854h-170.66666667V748.08888853H807.82222187zM386.8444448 748.08888853v-68.26666666H216.17777813v-159.28888854H147.91111147v159.28888854a68.26666667 68.26666667 0 0 0 68.26666666 68.26666666h170.66666667z"  horiz-adv-x="1024" />

    
    <glyph glyph-name="top-user" unicode="&#59251;" d="M512 768c212.074667 0 384-171.925333 384-384s-171.925333-384-384-384S128 171.92533300000002 128 384 299.925333 768 512 768z m0-64C335.274667 704 192 560.725333 192 384c0-91.242667 38.186667-173.546667 99.413333-231.850667l108.522667 129.386667a195.861333 195.861333 0 0 1 60.010667-28.053333l-117.930667-140.650667A318.506667 318.506667 0 0 1 512 64a318.506667 318.506667 0 0 1 161.237333 43.52l-120.170666 143.296a195.541333 195.541333 0 0 1 62.442666 25.088l109.589334-130.624A319.210667 319.210667 0 0 1 832 384c0 176.725333-143.274667 320-320 320z m0-106.666667a154.069333 154.069333 0 0 0 76.373333-287.914666l-0.64-0.362667-0.704-0.405333a153.685333 153.685333 0 0 0-4.928-2.624l5.632 3.029333a153.685333 153.685333 0 0 0-75.733333-19.861333 153.642667 153.642667 0 0 0-58.069333 11.306666l-0.213334 0.085334a153.173333 153.173333 0 0 0-5.653333 2.453333l5.888-2.56a153.194667 153.194667 0 0 0-20.970667 10.474667A154.069333 154.069333 0 0 0 512 597.333333z m0-64a90.069333 90.069333 0 1 1 0-180.138666A90.069333 90.069333 0 0 1 512 533.333333z"  horiz-adv-x="1024" />

    
    <glyph glyph-name="caigou-xianxing" unicode="&#59527;" d="M821.6 640l-78.4-256H342.4L272 640h549.6M216 832H64v-64h104.8l18.4-64 100-361.6c1.6-4.8 4-8.8 7.2-12l-52-83.2c-6.4-5.6-10.4-14.4-10.4-23.2 0-17.6 14.4-32 32-32h568v64H323.2l40 64H768c13.6 0 24.8 8.8 29.6 22.4l97.6 318.4c6.4 20.8-8 43.2-29.6 43.2H252.8l-18.4 64L216 832zM320 64m-64 0a64 64 0 1 1 128 0 64 64 0 1 1-128 0ZM768 64m-64 0a64 64 0 1 1 128 0 64 64 0 1 1-128 0Z"  horiz-adv-x="1024" />

    
    <glyph glyph-name="caigou" unicode="&#59528;" d="M768 320c13.6 0 24.8 8.8 29.6 22.4l97.6 318.4c6.4 20.8-8 43.2-29.6 43.2H252.8l-18.4 64L216 832H64v-64h104.8l18.4-64 100-361.6c1.6-4.8 4-8.8 7.2-12l-52-83.2c-6.4-5.6-10.4-14.4-10.4-23.2 0-17.6 14.4-32 32-32h568v64H323.2l40 64H768zM320 64m-64 0a64 64 0 1 1 128 0 64 64 0 1 1-128 0ZM768 64m-64 0a64 64 0 1 1 128 0 64 64 0 1 1-128 0Z"  horiz-adv-x="1024" />

    
    <glyph glyph-name="youhuijuan-xianxing" unicode="&#59544;" d="M896 640v-113.6c-40-36-64-88-64-143.2 0-55.2 24-107.2 64-143.2v-112H128V240.8c40 36 64 88 64 143.2 0 55.2-24 107.2-64 143.2V640h768m32 64H96c-17.6 0-32-14.4-32-32v-178.4c38.4-22.4 64-63.2 64-110.4s-25.6-88.8-64-110.4V96c0-17.6 14.4-32 32-32h832c17.6 0 32 14.4 32 32V272.8c-38.4 22.4-64 63.2-64 110.4s25.6 88.8 64 110.4V672c0 17.6-14.4 32-32 32zM640 448v-64H544v-64h96v-64H544v-96h-64V256H384v64h96v64H384v64h95.2L371.2 555.2l45.6 45.6 96-96L608 600l45.6-45.6L547.2 448H640z"  horiz-adv-x="1024" />

    
    <glyph glyph-name="youhuijuan" unicode="&#59545;" d="M960 494.4V672c0 17.6-14.4 32-32 32H96c-17.6 0-32-14.4-32-32v-178.4c38.4-22.4 64-63.2 64-110.4s-25.6-88.8-64-110.4V96c0-17.6 14.4-32 32-32h832c17.6 0 32 14.4 32 32V272.8c-38.4 22.4-64 63.2-64 110.4s25.6 88.8 64 111.2z m-320-47.2v-64H544v-64h96v-64H544v-96h-64v96H384v64h96v64H384v64h95.2L371.2 554.4l45.6 45.6 96-96L608 599.2l45.6-45.6-106.4-106.4H640z"  horiz-adv-x="1024" />

    
    <glyph glyph-name="xinwenzixun" unicode="&#59558;" d="M864 768H160c-17.6 0-32-14.4-32-32v-704c0-17.6 14.4-32 32-32h704c17.6 0 32 14.4 32 32V736c0 17.6-14.4 32-32 32zM512 192H256V384h256v-192z m256 0H576v64h192v-64z m0 128H576v64h192v-64z m0 128H256V576h512v-128z"  horiz-adv-x="1024" />

    
    <glyph glyph-name="xinwenzixun-xianxing" unicode="&#59559;" d="M832 704v-640H192V704h640m32 64H160c-17.6 0-32-14.4-32-32v-704c0-17.6 14.4-32 32-32h704c17.6 0 32 14.4 32 32V736c0 17.6-14.4 32-32 32zM768 256H576v-64h192v64zM512 384H256v-192h256V384z m256 0H576v-64h192v64z m0 192H256v-128h512V576z"  horiz-adv-x="1024" />

    
    <glyph glyph-name="shouye" unicode="&#59577;" d="M919.2 476.8L531.2 754.4c-11.2 8-26.4 8-36.8 0L104 476.8c-12.8-8.8-6.4-28.8 9.6-28.8H192v-432c0-8.8 7.2-16 16-16h192c8.8 0 16 7.2 16 16V256h192v-240c0-8.8 7.2-16 16-16h192c8.8 0 16 7.2 16 16V448h78.4c15.2 0 21.6 20 8.8 28.8z"  horiz-adv-x="1024" />

    
    <glyph glyph-name="shouye-xianxing" unicode="&#59578;" d="M512.8 689.6L768 506.4V64H640V320H384v-256H256V506.4l256.8 183.2m0 71.2c-6.4 0-12.8-1.6-18.4-5.6L104 476.8c-12.8-8.8-6.4-28.8 9.6-28.8H192v-432c0-8.8 7.2-16 16-16h224c8.8 0 16 7.2 16 16V256h128v-240c0-8.8 7.2-16 16-16h224c8.8 0 16 7.2 16 16V448h78.4c15.2 0 21.6 20 9.6 28.8L531.2 754.4c-5.6 4-12 6.4-18.4 6.4z"  horiz-adv-x="1024" />

    
    <glyph glyph-name="mall-fav-active" unicode="&#59586;" d="M519.2 88.79999999999995l255.2-133.6c12-6.4 25.6 4 23.2 16.8L748.8 256c-0.8 4.8 0.8 10.4 4.8 14.4L960 471.2c9.6 9.6 4 25.6-8.8 27.2l-284.8 41.6c-5.6 0.8-9.6 4-12 8.8l-128 257.6c-5.6 12-23.2 12-28.8 0L370.4 548c-2.4-4.8-7.2-8-12-8.8L73.6 497.6c-13.6-1.6-18.4-17.6-8.8-27.2l206.4-200.8c4-4 5.6-8.8 4.8-14.4l-48.8-284c-2.4-12.8 11.2-23.2 23.2-16.8L505.6 88c4 3.2 8.8 3.2 13.6 0.8z"  horiz-adv-x="1024" />

    
    <glyph glyph-name="mall-fav" unicode="&#59587;" d="M512 690.4L596 520c12-24 34.4-40 60-44l188.8-27.2-136-133.6c-19.2-18.4-27.2-44.8-23.2-71.2l32-188-168 89.6c-11.2 6.4-24 8.8-37.6 8.8-12.8 0-25.6-3.2-37.6-8.8l-168.8-88.8 32 188c4.8 25.6-4 52.8-23.2 71.2l-136 132.8 188.8 27.2C393.6 480 416 496 428 520L512 690.4m0 124.8c-5.6 0-11.2-3.2-14.4-8.8L370.4 548c-2.4-4.8-7.2-8-12-8.8L73.6 497.6c-13.6-1.6-18.4-17.6-8.8-27.2l206.4-200.8c4-4 5.6-8.8 4.8-14.4l-48.8-284c-1.6-10.4 6.4-18.4 16-18.4 2.4 0 4.8 0.8 7.2 1.6L505.6 88c2.4 1.6 4.8 1.6 7.2 1.6s4.8-0.8 7.2-1.6l255.2-133.6c2.4-1.6 4.8-1.6 7.2-1.6 9.6 0 17.6 8 16 18.4l-48.8 284c-0.8 4.8 0.8 10.4 4.8 14.4l206.4 200.8c9.6 9.6 4 25.6-8.8 27.2l-284.8 41.6c-5.6 0.8-9.6 4-12 8.8L526.4 806.4c-3.2 5.6-8.8 8.8-14.4 8.8z"  horiz-adv-x="1024" />

    
    <glyph glyph-name="yonghu-xianxing" unicode="&#59592;" d="M512 703.2c70.4 0 128-57.6 128-128s-57.6-128-128-128c-36 0-68.8 14.4-93.6 40.8-24.8 26.4-36.8 60-34.4 96 4 63.2 56.8 115.2 120 118.4 2.4 0.8 4.8 0.8 8 0.8M512 256c53.6 0 140.8-13.6 216-43.2 64-25.6 104-57.6 104-84v-64.8H192v64.8c0 26.4 40 58.4 104 84 75.2 29.6 162.4 43.2 216 43.2m0 511.2h-11.2c-96-5.6-174.4-83.2-180.8-178.4-7.2-112 80.8-204.8 191.2-204.8 105.6 0 192 86.4 192 192S617.6 767.2 512 767.2zM512 320c-128 0-384-64-384-191.2v-96c0-17.6 14.4-32 32-32h704c17.6 0 32 14.4 32 32V129.6C896 256 640 320 512 320z"  horiz-adv-x="1024" />

    
    <glyph glyph-name="yonghu" unicode="&#59593;" d="M500 767.2c-95.2-5.6-173.6-83.2-180-178.4-7.2-112 80.8-205.6 191.2-205.6 106.4 0 192 86.4 192 192 0.8 110.4-92 198.4-203.2 192zM512 320.8c-128 0-383.2-64-383.2-192v-96c0-17.6 14.4-32 32-32h702.4c17.6 0 32 14.4 32 32V129.6c0 127.2-255.2 191.2-383.2 191.2z"  horiz-adv-x="1024" />

    
    <glyph glyph-name="dianpu" unicode="&#59662;" d="M832 421.6c37.6 12.8 64 48.8 64 90.4 0 5.6-30.4 241.6-30.4 241.6-0.8 8-8 14.4-16 14.4H174.4c-8 0-15.2-6.4-16-14.4 0 0-30.4-236.8-30.4-241.6 0-41.6 26.4-77.6 64-90.4V16c0-8.8 7.2-16 16-16h608c8.8 0 16 7.2 16 16V421.6zM720.8 704l21.6-192h-32l-21.6 192h32zM592 704l7.2-192h-32L560 704h32z m-160 0h32l-7.2-192h-32l7.2 192z m-128.8 0h32l-21.6-192h-32l21.6 192zM608 64H416V224h192v-160z m160 288H256v69.6c15.2 5.6 29.6 15.2 40 27.2 17.6-20 43.2-32.8 72-32.8s54.4 12.8 72 32.8c17.6-20 43.2-32.8 72-32.8s54.4 12.8 72 32.8c17.6-20 43.2-32.8 72-32.8s54.4 12.8 72 32.8c10.4-12 24.8-21.6 40-27.2V352z"  horiz-adv-x="1024" />

    
    <glyph glyph-name="dianpu-xianxing" unicode="&#59663;" d="M865.6 753.6c-0.8 8-8 14.4-16 14.4H174.4c-8 0-15.2-6.4-16-14.4 0 0-30.4-236.8-30.4-241.6 0-41.6 26.4-77.6 64-90.4V16c0-8.8 7.2-16 16-16h608c8.8 0 16 7.2 16 16V421.6c37.6 12.8 64 48.8 64 90.4 0 5.6-30.4 241.6-30.4 241.6zM424 510.4c-12.8-3.2-24-9.6-32-19.2-3.2-4-11.2-11.2-24-11.2s-20 7.2-24 11.2c-8 8.8-18.4 16-30.4 19.2L335.2 704H432l-8-193.6zM560 704l8-193.6a66.4 66.4 0 0 1-32-19.2c-3.2-4-11.2-11.2-24-11.2s-20 7.2-24 11.2c-8 9.6-19.2 16-32 19.2l8 192.8 96 0.8z m40-193.6L592 704h96.8l21.6-193.6c-12-3.2-22.4-9.6-30.4-19.2-3.2-4-11.2-11.2-24-11.2s-20 7.2-24 11.2a66.4 66.4 0 0 1-32 19.2z m-352-19.2c-4-4-11.2-11.2-24-11.2-16.8 0-30.4 12.8-32 29.6 2.4 19.2 14.4 115.2 24 194.4h87.2l-21.6-192.8c-12.8-3.2-24.8-10.4-33.6-20zM576 64H448V192h128v-128z m192 0H640V256H384v-192H256V421.6c15.2 5.6 29.6 15.2 40 27.2 17.6-20 43.2-32.8 72-32.8s54.4 12.8 72 32.8c17.6-20 43.2-32.8 72-32.8s54.4 12.8 72 32.8c17.6-20 43.2-32.8 72-32.8s54.4 12.8 72 32.8c10.4-12 24.8-21.6 40-27.2V64z m32 416c-12.8 0-20 7.2-24 11.2a68.96 68.96 0 0 1-33.6 20L720.8 704H808c10.4-78.4 22.4-175.2 24-194.4-0.8-16.8-15.2-29.6-32-29.6z"  horiz-adv-x="1024" />

    
    <glyph glyph-name="bar-activity" unicode="&#59570;" d="M220.544 701.386667c22.72 62.4 98.858667 88.885333 168.618667 63.498666L790.848 618.666667 821.333333 618.666667c64.8 0 117.333333-52.533333 117.333334-117.333334v-117.333333a32 32 0 0 0-32-32 64 64 0 1 1 0-128 32 32 0 0 0 32-32v-117.333333c0-64.8-52.533333-117.333333-117.333334-117.333334H202.666667c-64.8 0-117.333333 52.533333-117.333334 117.333334V192a32 32 0 0 0 32 32 64 64 0 1 1 0 128 32 32 0 0 0-32 32V501.333333c0 60.586667 45.92 110.453333 104.853334 116.682667zM821.333333 554.666667h-41.226666l-0.064-0.16-0.469334 0.170666L202.666667 554.666667a53.333333 53.333333 0 0 1-53.333334-53.333334v-89.365333c55.210667-14.208 96-64.32 96-123.968s-40.789333-109.76-96-123.968V74.66666699999996a53.333333 53.333333 0 0 1 53.333334-53.333334h618.666666a53.333333 53.333333 0 0 1 53.333334 53.333334v89.365333c-55.210667 14.208-96 64.32-96 123.968s40.789333 109.76 96 123.968V501.333333a53.333333 53.333333 0 0 1-53.333334 53.333334zM640.042667 249.27999999999997a32 32 0 0 0 0-64h-256a32 32 0 0 0 0 64z m0 149.333333a32 32 0 0 0 0-64h-256a32 32 0 0 0 0 64z m-272.778667 306.133334c-38.933333 14.165333-77.056 0.917333-86.581333-25.248l-22.144-60.821334H603.733333z"  horiz-adv-x="1024" />

    
    <glyph glyph-name="bar-mall" unicode="&#59571;" d="M558.954667 738.6453329999999a101.333333 101.333333 0 1 0 175.509333-101.333333l-19.072-33.034667H864a74.666667 74.666667 0 0 0 74.624-72.106666l0.042667-2.56v-85.333334a74.666667 74.666667 0 0 0-74.666667-74.666666h-10.666667v-288c0-64.810667-52.533333-117.333333-117.333333-117.333334H309.333333c-64.8 0-117.333333 52.522667-117.333333 117.333334v288h-10.666667a74.666667 74.666667 0 0 0-74.624 72.096L106.666667 444.266667v85.333333a74.666667 74.666667 0 0 0 74.666666 74.666667l142.122667 0.010666-19.072 33.034667a101.333333 101.333333 0 1 0 175.509333 101.333333l39.530667-68.448zM789.333333 369.6H256v-288a53.333333 53.333333 0 0 1 53.333333-53.333333h426.666667a53.333333 53.333333 0 0 1 53.333333 53.333333v288z m74.666667 170.666667H181.333333a10.666667 10.666667 0 0 1-10.666666-10.666667v-85.333333a10.666667 10.666667 0 0 1 10.666666-10.666667h682.666667a10.666667 10.666667 0 0 1 10.666667 10.666667v85.333333a10.666667 10.666667 0 0 1-10.666667 10.666667zM373.472 720.3199999999999a37.333333 37.333333 0 0 1-13.653333-51.008l37.536-65.034667h84.010666l1.109334 1.92-58.005334 100.448a37.333333 37.333333 0 0 1-50.986666 13.674667z m291.904 0a37.333333 37.333333 0 0 1-50.986667-13.674667L556.373333 606.1866669999999l1.098667-1.909334h84.021333l37.546667 65.034667a37.333333 37.333333 0 0 1-11.861333 49.888z"  horiz-adv-x="1024" />

    


  </font>
</defs>
</svg>
